<?xml version="1.0" encoding="UTF-8" standalone="no"?>
<!-- Created with Inkscape (http://www.inkscape.org/) -->

<svg
   width="552.3833"
   height="223.06592"
   viewBox="0 0 552.3833 223.06592"
   version="1.1"
   id="svg5"
   inkscape:version="1.2.1 (9c6d41e410, 2022-07-14)"
   sodipodi:docname="prtotype.svg"
   inkscape:export-filename="prtotype.png"
   inkscape:export-xdpi="187.5"
   inkscape:export-ydpi="187.5"
   xml:space="preserve"
   xmlns:inkscape="http://www.inkscape.org/namespaces/inkscape"
   xmlns:sodipodi="http://sodipodi.sourceforge.net/DTD/sodipodi-0.dtd"
   xmlns="http://www.w3.org/2000/svg"
   xmlns:svg="http://www.w3.org/2000/svg"><sodipodi:namedview
     id="namedview7"
     pagecolor="#505050"
     bordercolor="#eeeeee"
     borderopacity="1"
     inkscape:showpageshadow="0"
     inkscape:pageopacity="0"
     inkscape:pagecheckerboard="0"
     inkscape:deskcolor="#505050"
     inkscape:document-units="px"
     showgrid="false"
     inkscape:zoom="0.1767767"
     inkscape:cx="-5283.5019"
     inkscape:cy="3017.9317"
     inkscape:window-width="1920"
     inkscape:window-height="1044"
     inkscape:window-x="0"
     inkscape:window-y="36"
     inkscape:window-maximized="1"
     inkscape:current-layer="g1852"
     showguides="false"><inkscape:grid
       type="xygrid"
       id="grid1438" /></sodipodi:namedview><defs
     id="defs2"><filter
       inkscape:collect="always"
       style="color-interpolation-filters:sRGB"
       id="filter981"
       x="-0.023851505"
       y="-0.063538775"
       width="1.047703"
       height="1.1270776"><feGaussianBlur
         inkscape:collect="always"
         stdDeviation="3.9576535"
         id="feGaussianBlur983" /></filter></defs><g
     inkscape:label="Layer 1"
     inkscape:groupmode="layer"
     id="layer1"
     transform="translate(2019.9752,-2799.3423)"><g
       id="g470"
       transform="matrix(1.3239425,0,0,1.3239425,-2082.7129,2572.0194)"><g
         id="g449"
         style="fill:#ff2602;fill-opacity:1;filter:url(#filter981)"><g
           id="g447"
           transform="translate(-4.53843,-18.627789)"
           style="fill:#ff2602;fill-opacity:1"><g
             id="g445"
             transform="translate(-476.9139,-132.25191)"
             style="font-weight:900;font-size:213.333px;font-family:'Noto Sans Ethiopic';-inkscape-font-specification:'Noto Sans Ethiopic Heavy';fill:#ff2602;fill-opacity:1"><path
               d="m 671.01288,348.22941 h -7.49989 c -3.35686,-0.30812 -3.68031,-0.0737 -5.08926,2.74097 l -41.06516,82.03674 c -4.03701,8.3236 -2.69893,7.75746 -6.58978,0.007 l -22.74373,-45.3055 c -8.55916,-17.11831 -17.14813,-34.26642 -25.76692,-51.44441 -2.08453,-4.30809 -3.11154,-4.07639 2.18878,-4.07639 h 9.78417 c 4.03272,-0.45849 4.14123,0.48545 5.83658,3.87125 l 32.32839,64.56315 c 1.8018,4.25668 1.80056,3.07614 3.60156,-0.53109 l 31.54266,-63.17709 c 1.85522,-5.00596 2.85634,-4.72622 7.8396,-4.72622 h 30.369 c 4.74591,-0.44571 4.04685,0.55505 4.04685,4.89585 V 444.06501 L 750.733,443.126 c 3.13968,5.21194 3.67891,10.71232 0,15.416 l -76.87475,-1.84819 V 352.66684 c 0.0586,-3.69616 0.82666,-4.43743 -2.84537,-4.43743 z"
               style="font-weight:bold;font-family:'Zilap Monograma';-inkscape-font-specification:'Zilap Monograma Bold';fill:#ff2602;fill-opacity:1"
               id="path435"
               sodipodi:nodetypes="cccccccccccccccccccccc" /><path
               d="m 749.483,481.563 -98.9169,-4.9e-4 c -1.35687,-0.0514 -1.36809,-0.26959 -1.39531,-1.1652 v -6.8556 l -0.10416,-49.3749 -20.27588,39.86603 c -0.93673,2.3355 -1.18089,2.52967 -3.5308,2.52967 h -21.87989 c -2.25768,0.17605 -2.64617,0.20655 -3.60521,-1.68561 l -26.12477,-51.54339 -19.37497,-37.9167 v 87.40832 c -0.0509,1.6452 0.53996,2.73619 2.0969,2.69578 h 4.87781 c 1.87226,0.0879 1.81126,-1.20024 1.78058,-2.72347 l 0.0873,-44.83979 c 0.35285,-5.61154 0.57591,-3.9935 2.22647,-1.57781 l 12.20447,24.24838 c 1.50787,2.12199 1.414,3.93107 1.414,6.42012 v 32.77503 c -0.0222,1.19534 -0.23812,1.76676 -1.62766,1.73914 h -37.03899 c -1.43109,0.0201 -1.9412,-0.28435 -1.95829,-1.40756 V 333.93068 c 0,-0.72142 0.88613,-1.74297 1.67663,-1.74297 h 9.71174 c 0.48131,0.0144 0.7081,0.18191 0.79437,0.40432 19.43529,38.59767 38.96962,77.09626 58.603,115.49585 0.91703,2.11469 1.10954,2.53723 3.39313,2.53723 h 2.598 c 2.58337,0.27881 2.69771,-0.19545 3.79994,-2.35621 l 42.79516,-83.8936 c 2.44818,-4.24038 3.2945,-3.67015 3.2945,0.30269 v 100.84292 l 84.9439,0.75109 c 4.12054,0.25639 5.70811,13.1603 -0.465,15.291 z"
               style="font-weight:bold;font-family:'Zilap Monograma';-inkscape-font-specification:'Zilap Monograma Bold';fill:#ff2602;fill-opacity:1"
               id="path437"
               sodipodi:nodetypes="ccccccccccccccccccccccccccccccccccccc" /><path
               id="path439"
               style="font-weight:bold;font-family:'Zilap Monograma';-inkscape-font-specification:'Zilap Monograma Bold';fill:#ff2602;fill-opacity:1"
               d="m 750.524,332.501 c -6.18053,0 -11.97752,1.04121 -17.39417,3.12451 -5.41664,2.1528 -10.31251,5.3118 -14.6875,9.4785 -4.44442,4.2361 -7.77778,8.9937 -10,14.2715 -2.29165,5.3472 -3.4375,11.0764 -3.4375,17.1875 0,11.1111 3.8542,20.8327 11.5625,29.166 -2.56943,-5.2778 -3.85546,-10.7286 -3.85546,-16.3535 0,-2.0139 0.17426,-4.0631 0.52148,-6.1465 1.25,-7.8472 4.54928,-14.9306 9.89648,-21.25 1.52778,-1.7361 3.15843,-3.3327 4.89454,-4.791 0.27776,-0.3472 0.59027,-0.6597 0.9375,-0.9375 2.9861,-2.8472 6.25131,-4.9647 9.79297,-6.3535 3.29072,-1.2905 6.92481,-1.9554 10.875,-2.0469 v -0.012 l 0.26516,-1.1e-4 c 5.35136,-4.57258 8.59895,-9.366 0.629,-15.337 z m -0.002,15.33781 c -1.9e-4,10e-4 0.002,-0.027 0.002,-0.025 -0.008,2.6e-4 -10e-4,0.0167 -0.002,0.025 z m -0.623,7.57819 c -1.45833,0 -2.91672,0.17381 -4.37505,0.52101 -6.73608,1.3889 -12.49937,4.8264 -17.29102,10.3125 -4.02776,4.6528 -6.73612,9.9653 -8.125,15.9375 -0.55555,2.3611 -0.83398,4.6869 -0.83398,6.9785 0,2.6389 0.34852,5.2431 1.04296,7.8125 1.25,4.9306 3.57575,9.2355 6.97852,12.9161 3.05554,3.2638 6.1465,5.7297 9.27149,7.3964 3.12499,1.5972 6.66667,3.1257 10.625,4.584 0.20833,0.069 0.38064,0.1381 0.51953,0.2071 2.08333,0.7639 4.02845,1.6332 5.83398,2.6054 1.80555,0.9722 3.26391,2.2562 4.375,3.8535 1.18055,1.5277 1.77149,3.577 1.77149,6.1465 0,2.5694 -0.90344,4.6168 -2.70899,6.1446 -1.73609,1.5278 -3.81938,2.29339 -6.24993,2.29339 -1.75228,8.18466 -2.20877,9.01864 -0.008,15.46051 l 0.008,-0.0445 c 6.59721,0 12.32641,-2.29209 17.1875,-6.87549 4.72221,-4.5833 7.08399,-10.2424 7.08399,-16.9785 0,-6.0417 -1.35417,-10.9375 -4.0625,-14.6875 -2.70833,-3.75 -6.28604,-6.7708 -10.73047,-9.0625 -2.5,-1.25 -5.10417,-2.3618 -7.8125,-3.334 -2.56944,-0.9028 -5.06945,-1.9445 -7.5,-3.125 -2.36111,-1.25 -4.47852,-2.8825 -6.35352,-4.8964 -2.2222,-2.5695 -3.47222,-5.382 -3.75,-8.4375 -0.0695,-0.6945 -0.10351,-1.3536 -0.10351,-1.9786 0,-2.3611 0.48481,-4.6869 1.45703,-6.9785 1.38888,-3.4028 3.61242,-6.3554 6.66797,-8.8554 2.22222,-1.6667 4.44381,-2.49962 6.66601,-2.49962 -1.93191,-5.26368 -1.9306,-10.41057 0.416,-15.416 z m -4.47857,24.58351 -0.625,0.625 c -1.80553,2.0833 -2.91731,4.4791 -3.33398,7.1875 -0.0695,0.5555 -0.10352,1.0763 -0.10352,1.5625 0,2.0833 0.72919,4.0265 2.1875,5.8321 1.94444,2.0139 4.37436,3.5764 7.29102,4.6875 1.18055,0.4166 2.32639,0.7992 3.4375,1.1464 4.79165,1.3889 9.37501,3.298 13.75,5.7286 5.55555,3.1944 9.79233,7.6054 12.70898,13.2304 1.80555,3.8194 2.70899,8.2627 2.70899,13.3321 0,9.1665 -3.33336,16.911 -10,23.2304 -3.33333,3.2639 -7.0152,5.6938 -11.04297,7.291 -4.42564,1.27268 -8.42575,2.56048 -12.45095,2.418 6.43243,7.95317 -0.0379,15.53814 -0.465,15.291 6.59721,0 12.81311,-1.18139 18.64642,-3.54259 5.83331,-2.2916 11.14585,-5.7633 15.9375,-10.4161 9.79163,-9.3749 14.6875,-20.7994 14.6875,-34.2714 0,-7.2222 -1.35417,-13.7848 -4.0625,-19.6875 -4.23611,-8.4723 -10.48615,-15.1389 -18.75,-20 -3.74999,-2.2222 -7.6402,-3.9931 -11.66797,-5.3125 -2.63889,-0.9722 -5.55556,-1.978 -8.75,-3.0196 -1.66666,-0.5556 -3.50564,-1.2506 -5.51953,-2.084 -1.94444,-0.9027 -3.47288,-1.9785 -4.58399,-3.2285 z"
               sodipodi:nodetypes="ccccscsccccscccccccccccscccccscscccccsscccccscccccccscccccsccccccsccccccc" /><path
               id="path441"
               style="font-weight:bold;font-family:'Zilap Monograma';-inkscape-font-specification:'Zilap Monograma Bold';fill:#ff2602;fill-opacity:1"
               d="m 750.524,332.501 c -1.98538,5.27216 -0.55249,10.23665 -0.629,15.337 l 99.90084,0.39101 c 4.65273,0.0182 9.30427,0.1743 13.95704,0.5215 4.72219,0.3472 9.3416,1.0063 13.85546,1.9785 8.54165,1.875 16.21399,5.555 23.01954,11.0411 6.4583,5.5556 11.35417,12.2923 14.6875,20.2089 4.6167,10.1601 5.96983,18.25855 5.31167,25.31245 5.18712,4.59683 10.37425,0.63173 15.56137,0.48255 0.1265,-0.1646 0.25021,-0.317 0.37696,-0.4825 0,-10.8331 -2.22158,-21.3883 -6.66602,-31.666 -4.30555,-10.1389 -10.65975,-18.8188 -19.0625,-26.041 -8.68052,-7.1528 -18.54235,-11.9445 -29.58398,-14.375 -5.06944,-1.1111 -10.31187,-1.8763 -15.72852,-2.293 -5.34719,-0.4167 -10.58963,-0.625 -15.72852,-0.625 z m -0.625,22.916 c -3.66693,4.44575 -1.95712,15.04986 -0.416,15.416 l 105.104,1.45851 c 3.40277,0 6.87436,0.2425 10.41602,0.7286 3.54165,0.4167 6.91105,1.2159 10.10546,2.3964 10.76385,4.4445 17.39454,12.3271 19.89454,23.6465 0.62499,2.7084 0.9375,5.5549 0.9375,8.541 h 16.04296 c 0,-10.347 -2.74437,-19.7924 -8.23046,-28.3339 -5.41666,-8.6111 -13.08901,-14.8611 -23.01954,-18.75 -8.19441,-2.8472 -16.66827,-4.20042 -25.41796,-4.2696 z"
               sodipodi:nodetypes="ccscccccccccccscccccccccccsc" /><path
               id="path443"
               style="font-weight:bold;font-family:'Zilap Monograma';-inkscape-font-specification:'Zilap Monograma Bold';fill:#ff2602;fill-opacity:1"
               d="m 815.10846,379.36617 c -1.17513,-1.13523 -1.26058,-0.6462 -1.25079,0.5117 v 98.92987 c 0,1.97093 0.88143,2.75489 3.95569,2.75489 h 32.60681 c 12.77774,0 23.15844,-0.90348 31.14454,-2.70898 5.62497,-1.3195 10.86937,-3.16039 15.73046,-5.52149 9.93054,-5.06949 18.08966,-11.97852 24.47852,-20.72851 6.4583,-8.74999 10.86741,-18.5077 13.22852,-29.27149 1.04167,-5.41669 1.5625,-10.76332 1.5625,-16.04101 0.22494,0.3113 -15.93766,3.1e-4 -15.93766,3.1e-4 0,4.16669 -0.41651,8.40318 -1.24984,12.70867 -1.80555,8.40279 -5.20705,16.04112 -10.20704,22.91602 -4.93053,6.80559 -11.25068,12.15212 -18.95898,16.04101 -3.74999,1.875 -7.81251,3.3333 -12.1875,4.375 -6.73608,1.5277 -15.93689,2.29297 -27.60352,2.29297 h -20.52148 v -66.35371 c -0.0439,-1.82522 -1.04641,-3.8519 -1.6704,-4.58133 m 10.31688,13.04425 v 49.86931 h 11.14454 c 5.97219,0 11.90973,-0.3125 17.8125,-0.9375 5.97219,-0.6944 11.7014,-2.32699 17.1875,-4.89649 8.54163,-4.23609 15.20834,-10.2779 20,-18.125 4.86109,-7.84719 7.29296,-16.52712 7.29296,-26.04101 0.21049,-1.96389 -15.83158,-2.42884 -16.04296,0 0,9.30549 -3.29733,17.3264 -9.89454,24.0625 -4.44442,4.16659 -9.30621,6.875 -14.58398,8.125 -5.22569,1.16895 -10.79187,1.75977 -16.69837,1.77131 -0.14667,0.01 -0.1661,-0.0447 -0.17663,-0.19174 v -15.83739 l -15.31546,-18.01006 c -0.57009,-0.57276 -0.70487,-0.15092 -0.72556,0.21107 z"
               sodipodi:nodetypes="ccccsccccccccccscccccscccccccccccc" /></g></g></g><g
         id="g467"><g
           id="g465"
           transform="translate(-4.53843,-18.627789)"><g
             id="g463"
             transform="translate(-476.9139,-132.25191)"
             style="font-weight:900;font-size:213.333px;font-family:'Noto Sans Ethiopic';-inkscape-font-specification:'Noto Sans Ethiopic Heavy'"><path
               d="m 671.01288,348.22941 h -7.49989 c -3.35686,-0.30812 -3.68031,-0.0737 -5.08926,2.74097 l -41.06516,82.03674 c -4.03701,8.3236 -2.69893,7.75746 -6.58978,0.007 l -22.74373,-45.3055 c -8.55916,-17.11831 -17.14813,-34.26642 -25.76692,-51.44441 -2.08453,-4.30809 -3.11154,-4.07639 2.18878,-4.07639 h 9.78417 c 4.03272,-0.45849 4.14123,0.48545 5.83658,3.87125 l 32.32839,64.56315 c 1.8018,4.25668 1.80056,3.07614 3.60156,-0.53109 l 31.54266,-63.17709 c 1.85522,-5.00596 2.85634,-4.72622 7.8396,-4.72622 h 30.369 c 4.74591,-0.44571 4.04685,0.55505 4.04685,4.89585 V 444.06501 L 750.733,443.126 c 3.13968,5.21194 3.67891,10.71232 0,15.416 l -76.87475,-1.84819 V 352.66684 c 0.0586,-3.69616 0.82666,-4.43743 -2.84537,-4.43743 z"
               style="font-weight:bold;font-family:'Zilap Monograma';-inkscape-font-specification:'Zilap Monograma Bold';fill:#ff2602;fill-opacity:1"
               id="path451"
               sodipodi:nodetypes="cccccccccccccccccccccc" /><path
               d="m 749.483,481.563 -98.9169,-4.9e-4 c -1.35687,-0.0514 -1.36809,-0.26959 -1.39531,-1.1652 v -6.8556 l -0.10416,-49.3749 -20.27588,39.86603 c -0.93673,2.3355 -1.18089,2.52967 -3.5308,2.52967 h -21.87989 c -2.25768,0.17605 -2.64617,0.20655 -3.60521,-1.68561 l -26.12477,-51.54339 -19.37497,-37.9167 v 87.40832 c -0.0509,1.6452 0.53996,2.73619 2.0969,2.69578 h 4.87781 c 1.87226,0.0879 1.81126,-1.20024 1.78058,-2.72347 l 0.0873,-44.83979 c 0.35285,-5.61154 0.57591,-3.9935 2.22647,-1.57781 l 12.20447,24.24838 c 1.50787,2.12199 1.414,3.93107 1.414,6.42012 v 32.77503 c -0.0222,1.19534 -0.23812,1.76676 -1.62766,1.73914 h -37.03899 c -1.43109,0.0201 -1.9412,-0.28435 -1.95829,-1.40756 V 333.93068 c 0,-0.72142 0.88613,-1.74297 1.67663,-1.74297 h 9.71174 c 0.48131,0.0144 0.7081,0.18191 0.79437,0.40432 19.43529,38.59767 38.96962,77.09626 58.603,115.49585 0.91703,2.11469 1.10954,2.53723 3.39313,2.53723 h 2.598 c 2.58337,0.27881 2.69771,-0.19545 3.79994,-2.35621 l 42.79516,-83.8936 c 2.44818,-4.24038 3.2945,-3.67015 3.2945,0.30269 v 100.84292 l 84.9439,0.75109 c 4.12054,0.25639 5.70811,13.1603 -0.465,15.291 z"
               style="font-weight:bold;font-family:'Zilap Monograma';-inkscape-font-specification:'Zilap Monograma Bold';fill:#ff2602;fill-opacity:1"
               id="path453"
               sodipodi:nodetypes="ccccccccccccccccccccccccccccccccccccc" /><path
               id="path455"
               style="font-weight:bold;font-family:'Zilap Monograma';-inkscape-font-specification:'Zilap Monograma Bold';fill:#ff2602;fill-opacity:1"
               d="m 750.524,332.501 c -6.18053,0 -11.97752,1.04121 -17.39417,3.12451 -5.41664,2.1528 -10.31251,5.3118 -14.6875,9.4785 -4.44442,4.2361 -7.77778,8.9937 -10,14.2715 -2.29165,5.3472 -3.4375,11.0764 -3.4375,17.1875 0,11.1111 3.8542,20.8327 11.5625,29.166 -2.56943,-5.2778 -3.85546,-10.7286 -3.85546,-16.3535 0,-2.0139 0.17426,-4.0631 0.52148,-6.1465 1.25,-7.8472 4.54928,-14.9306 9.89648,-21.25 1.52778,-1.7361 3.15843,-3.3327 4.89454,-4.791 0.27776,-0.3472 0.59027,-0.6597 0.9375,-0.9375 2.9861,-2.8472 6.25131,-4.9647 9.79297,-6.3535 3.29072,-1.2905 6.92481,-1.9554 10.875,-2.0469 v -0.012 l 0.26516,-1.1e-4 c 5.35136,-4.57258 8.59895,-9.366 0.629,-15.337 z m -0.002,15.33781 c -1.9e-4,10e-4 0.002,-0.027 0.002,-0.025 -0.008,2.6e-4 -10e-4,0.0167 -0.002,0.025 z m -0.623,7.57819 c -1.45833,0 -2.91672,0.17381 -4.37505,0.52101 -6.73608,1.3889 -12.49937,4.8264 -17.29102,10.3125 -4.02776,4.6528 -6.73612,9.9653 -8.125,15.9375 -0.55555,2.3611 -0.83398,4.6869 -0.83398,6.9785 0,2.6389 0.34852,5.2431 1.04296,7.8125 1.25,4.9306 3.57575,9.2355 6.97852,12.9161 3.05554,3.2638 6.1465,5.7297 9.27149,7.3964 3.12499,1.5972 6.66667,3.1257 10.625,4.584 0.20833,0.069 0.38064,0.1381 0.51953,0.2071 2.08333,0.7639 4.02845,1.6332 5.83398,2.6054 1.80555,0.9722 3.26391,2.2562 4.375,3.8535 1.18055,1.5277 1.77149,3.577 1.77149,6.1465 0,2.5694 -0.90344,4.6168 -2.70899,6.1446 -1.73609,1.5278 -3.81938,2.29339 -6.24993,2.29339 -1.75228,8.18466 -2.20877,9.01864 -0.008,15.46051 l 0.008,-0.0445 c 6.59721,0 12.32641,-2.29209 17.1875,-6.87549 4.72221,-4.5833 7.08399,-10.2424 7.08399,-16.9785 0,-6.0417 -1.35417,-10.9375 -4.0625,-14.6875 -2.70833,-3.75 -6.28604,-6.7708 -10.73047,-9.0625 -2.5,-1.25 -5.10417,-2.3618 -7.8125,-3.334 -2.56944,-0.9028 -5.06945,-1.9445 -7.5,-3.125 -2.36111,-1.25 -4.47852,-2.8825 -6.35352,-4.8964 -2.2222,-2.5695 -3.47222,-5.382 -3.75,-8.4375 -0.0695,-0.6945 -0.10351,-1.3536 -0.10351,-1.9786 0,-2.3611 0.48481,-4.6869 1.45703,-6.9785 1.38888,-3.4028 3.61242,-6.3554 6.66797,-8.8554 2.22222,-1.6667 4.44381,-2.49962 6.66601,-2.49962 -1.93191,-5.26368 -1.9306,-10.41057 0.416,-15.416 z m -4.47857,24.58351 -0.625,0.625 c -1.80553,2.0833 -2.91731,4.4791 -3.33398,7.1875 -0.0695,0.5555 -0.10352,1.0763 -0.10352,1.5625 0,2.0833 0.72919,4.0265 2.1875,5.8321 1.94444,2.0139 4.37436,3.5764 7.29102,4.6875 1.18055,0.4166 2.32639,0.7992 3.4375,1.1464 4.79165,1.3889 9.37501,3.298 13.75,5.7286 5.55555,3.1944 9.79233,7.6054 12.70898,13.2304 1.80555,3.8194 2.70899,8.2627 2.70899,13.3321 0,9.1665 -3.33336,16.911 -10,23.2304 -3.33333,3.2639 -7.0152,5.6938 -11.04297,7.291 -4.42564,1.27268 -8.42575,2.56048 -12.45095,2.418 6.43243,7.95317 -0.0379,15.53814 -0.465,15.291 6.59721,0 12.81311,-1.18139 18.64642,-3.54259 5.83331,-2.2916 11.14585,-5.7633 15.9375,-10.4161 9.79163,-9.3749 14.6875,-20.7994 14.6875,-34.2714 0,-7.2222 -1.35417,-13.7848 -4.0625,-19.6875 -4.23611,-8.4723 -10.48615,-15.1389 -18.75,-20 -3.74999,-2.2222 -7.6402,-3.9931 -11.66797,-5.3125 -2.63889,-0.9722 -5.55556,-1.978 -8.75,-3.0196 -1.66666,-0.5556 -3.50564,-1.2506 -5.51953,-2.084 -1.94444,-0.9027 -3.47288,-1.9785 -4.58399,-3.2285 z"
               sodipodi:nodetypes="ccccscsccccscccccccccccscccccscscccccsscccccscccccccscccccsccccccsccccccc" /><path
               id="path457"
               style="font-weight:bold;font-family:'Zilap Monograma';-inkscape-font-specification:'Zilap Monograma Bold';fill:#ff2602;fill-opacity:1"
               d="m 750.524,332.501 c -1.98538,5.27216 -0.55249,10.23665 -0.629,15.337 l 99.90084,0.39101 c 4.65273,0.0182 9.30427,0.1743 13.95704,0.5215 4.72219,0.3472 9.3416,1.0063 13.85546,1.9785 8.54165,1.875 16.21399,5.555 23.01954,11.0411 6.4583,5.5556 11.35417,12.2923 14.6875,20.2089 4.6167,10.1601 5.96983,18.25855 5.31167,25.31245 5.18712,4.59683 10.37425,0.63173 15.56137,0.48255 0.1265,-0.1646 0.25021,-0.317 0.37696,-0.4825 0,-10.8331 -2.22158,-21.3883 -6.66602,-31.666 -4.30555,-10.1389 -10.65975,-18.8188 -19.0625,-26.041 -8.68052,-7.1528 -18.54235,-11.9445 -29.58398,-14.375 -5.06944,-1.1111 -10.31187,-1.8763 -15.72852,-2.293 -5.34719,-0.4167 -10.58963,-0.625 -15.72852,-0.625 z m -0.625,22.916 c -3.66693,4.44575 -1.95712,15.04986 -0.416,15.416 l 105.104,1.45851 c 3.40277,0 6.87436,0.2425 10.41602,0.7286 3.54165,0.4167 6.91105,1.2159 10.10546,2.3964 10.76385,4.4445 17.39454,12.3271 19.89454,23.6465 0.62499,2.7084 0.9375,5.5549 0.9375,8.541 h 16.04296 c 0,-10.347 -2.74437,-19.7924 -8.23046,-28.3339 -5.41666,-8.6111 -13.08901,-14.8611 -23.01954,-18.75 -8.19441,-2.8472 -16.66827,-4.20042 -25.41796,-4.2696 z"
               sodipodi:nodetypes="ccscccccccccccscccccccccccsc" /><path
               id="path460"
               style="font-weight:bold;font-family:'Zilap Monograma';-inkscape-font-specification:'Zilap Monograma Bold';fill:#ff2602;fill-opacity:1"
               d="m 815.10846,379.36617 c -1.17513,-1.13523 -1.26058,-0.6462 -1.25079,0.5117 v 98.92987 c 0,1.97093 0.88143,2.75489 3.95569,2.75489 h 32.60681 c 12.77774,0 23.15844,-0.90348 31.14454,-2.70898 5.62497,-1.3195 10.86937,-3.16039 15.73046,-5.52149 9.93054,-5.06949 18.08966,-11.97852 24.47852,-20.72851 6.4583,-8.74999 10.86741,-18.5077 13.22852,-29.27149 1.04167,-5.41669 1.5625,-10.76332 1.5625,-16.04101 0.22494,0.3113 -15.93766,3.1e-4 -15.93766,3.1e-4 0,4.16669 -0.41651,8.40318 -1.24984,12.70867 -1.80555,8.40279 -5.20705,16.04112 -10.20704,22.91602 -4.93053,6.80559 -11.25068,12.15212 -18.95898,16.04101 -3.74999,1.875 -7.81251,3.3333 -12.1875,4.375 -6.73608,1.5277 -15.93689,2.29297 -27.60352,2.29297 h -20.52148 v -66.35371 c -0.0439,-1.82522 -1.04641,-3.8519 -1.6704,-4.58133 m 10.31688,13.04425 v 49.86931 h 11.14454 c 5.97219,0 11.90973,-0.3125 17.8125,-0.9375 5.97219,-0.6944 11.7014,-2.32699 17.1875,-4.89649 8.54163,-4.23609 15.20834,-10.2779 20,-18.125 4.86109,-7.84719 7.29296,-16.52712 7.29296,-26.04101 0.21049,-1.96389 -15.83158,-2.42884 -16.04296,0 0,9.30549 -3.29733,17.3264 -9.89454,24.0625 -4.44442,4.16659 -9.30621,6.875 -14.58398,8.125 -5.22569,1.16895 -10.79187,1.75977 -16.69837,1.77131 -0.14667,0.01 -0.1661,-0.0447 -0.17663,-0.19174 v -15.83739 l -15.31546,-18.01006 c -0.57009,-0.57276 -0.70487,-0.15092 -0.72556,0.21107 z"
               sodipodi:nodetypes="ccccsccccccccccscccccscccccccccccc" /></g></g></g></g></g></svg>
