<?xml version="1.0" encoding="UTF-8" standalone="no"?>
<!-- Created with Inkscape (http://www.inkscape.org/) -->

<svg
   width="1080"
   height="1080"
   viewBox="0 0 285.75 285.75"
   version="1.1"
   id="svg5"
   inkscape:version="1.1 (c68e22c387, 2021-05-23)"
   sodipodi:docname="tig.svg"
   xmlns:inkscape="http://www.inkscape.org/namespaces/inkscape"
   xmlns:sodipodi="http://sodipodi.sourceforge.net/DTD/sodipodi-0.dtd"
   xmlns:xlink="http://www.w3.org/1999/xlink"
   xmlns="http://www.w3.org/2000/svg"
   xmlns:svg="http://www.w3.org/2000/svg">
  <sodipodi:namedview
     id="namedview7"
     pagecolor="#505050"
     bordercolor="#eeeeee"
     borderopacity="1"
     inkscape:pageshadow="0"
     inkscape:pageopacity="0"
     inkscape:pagecheckerboard="0"
     inkscape:document-units="px"
     showgrid="false"
     inkscape:zoom="0.15393519"
     inkscape:cx="1270.015"
     inkscape:cy="5050.827"
     inkscape:window-width="1366"
     inkscape:window-height="715"
     inkscape:window-x="-8"
     inkscape:window-y="-8"
     inkscape:window-maximized="1"
     inkscape:current-layer="g1919" />
  <defs
     id="defs2" />
  <g
     inkscape:label="Layer 1"
     inkscape:groupmode="layer"
     id="layer1">
    <g
       id="g1919"
       transform="matrix(0.26458333,0,0,0.26458333,-567.11533,478.57165)">
      <g
         id="g1272">
        <rect
           fill="#da121a"
           width="1189.7771"
           height="1189.7771"
           id="rect879"
           x="5052.8174"
           y="-335.47177"
           style="stroke-width:1.31517"
           ry="594.88849" />
        <g
           id="g897"
           transform="matrix(260.01806,84.484983,-84.484983,260.01806,5858.8825,259.41639)">
          <g
             id="g887">
            <polygon
               id="polygon883"
               fill="#fcdd09"
               points="0,1 0.5,1 0,0 "
               transform="rotate(18,3.1568758,-0.5)" />
            <use
               xlink:href="#w-3-3"
               transform="scale(-1,1)"
               id="use885"
               x="0"
               y="0"
               width="100%"
               height="100%" />
          </g>
          <use
             xlink:href="#t-5-9"
             transform="rotate(72)"
             id="use889"
             x="0"
             y="0"
             width="100%"
             height="100%" />
          <use
             xlink:href="#t-5-9"
             transform="rotate(-72)"
             id="use891"
             x="0"
             y="0"
             width="100%"
             height="100%" />
          <use
             xlink:href="#t-5-9"
             transform="rotate(144)"
             id="use893"
             x="0"
             y="0"
             width="100%"
             height="100%" />
          <use
             xlink:href="#t-5-9"
             transform="rotate(-144)"
             id="use895"
             x="0"
             y="0"
             width="100%"
             height="100%" />
        </g>
        <path
           id="path881"
           d="m 5121.9469,-16.618112 c -34.1485,85.234 -53.1078,178.315602 -53.1078,276.035502 0,97.721 18.9584,190.8002 53.1078,276.03541 l 417.6949,-276.03541 z"
           style="fill:#fcdd09;fill-opacity:1;stroke-width:2.16783" />
        <rect
           fill="#da121a"
           width="1145.4097"
           height="1145.4097"
           id="rect901"
           x="5075.0015"
           y="-313.28806"
           style="fill:none;stroke:#fcdd09;stroke-width:51.3949;stroke-miterlimit:4;stroke-dasharray:none;stroke-opacity:1"
           ry="572.70483" />
      </g>
      <rect
         fill="#da121a"
         width="1200"
         height="682"
         id="rect1886"
         x="1955.0223"
         y="-339.22043" />
      <path
         fill="#fcdd09"
         d="m 1955.0223,342.77959 v -682 l 516,340.9999967"
         id="path1888" />
      <g
         id="s"
         transform="matrix(175.94546,57.168144,-57.168144,175.94546,2755.0223,1.7795867)">
        <g
           id="t">
          <polygon
             id="w"
             fill="#fcdd09"
             points="0,0 0,1 0.5,1 "
             transform="rotate(18,3.1568758,-0.5)" />
          <use
             xlink:href="#w"
             transform="scale(-1,1)"
             id="use1891"
             x="0"
             y="0"
             width="100%"
             height="100%" />
        </g>
        <use
           xlink:href="#t"
           transform="rotate(72)"
           id="use1894"
           x="0"
           y="0"
           width="100%"
           height="100%" />
        <use
           xlink:href="#t"
           transform="rotate(-72)"
           id="use1896"
           x="0"
           y="0"
           width="100%"
           height="100%" />
        <use
           xlink:href="#t"
           transform="rotate(144)"
           id="use1898"
           x="0"
           y="0"
           width="100%"
           height="100%" />
        <use
           xlink:href="#t"
           transform="rotate(-144)"
           id="use1900"
           x="0"
           y="0"
           width="100%"
           height="100%" />
      </g>
      <rect
         fill="#da121a"
         width="1007.8823"
         height="1007.8823"
         id="rect1886-3"
         x="2184.1724"
         y="-1765.9008"
         style="stroke-width:1.1141"
         ry="503.94113" />
      <path
         id="path1888-6"
         d="m 2220.3771,-1450.1345 c -23.2793,58.1047 -36.204,121.5591 -36.204,188.1755 0,66.6171 12.9241,130.0699 36.204,188.1754 l 284.7457,-188.1754 z"
         style="fill:#fcdd09;fill-opacity:1;stroke-width:1.47783" />
      <g
         id="s-7"
         transform="matrix(260.01806,84.484983,-84.484983,260.01806,2827.29,-1261.96)">
        <g
           id="t-5">
          <polygon
             id="w-3"
             fill="#fcdd09"
             points="0.5,1 0,0 0,1 "
             transform="rotate(18,3.1568758,-0.5)" />
          <use
             xlink:href="#w-3"
             transform="scale(-1,1)"
             id="use1891-5"
             x="0"
             y="0"
             width="100%"
             height="100%" />
        </g>
        <use
           xlink:href="#t-5"
           transform="rotate(72)"
           id="use1894-6"
           x="0"
           y="0"
           width="100%"
           height="100%" />
        <use
           xlink:href="#t-5"
           transform="rotate(-72)"
           id="use1896-2"
           x="0"
           y="0"
           width="100%"
           height="100%" />
        <use
           xlink:href="#t-5"
           transform="rotate(144)"
           id="use1898-9"
           x="0"
           y="0"
           width="100%"
           height="100%" />
        <use
           xlink:href="#t-5"
           transform="rotate(-144)"
           id="use1900-1"
           x="0"
           y="0"
           width="100%"
           height="100%" />
      </g>
      <rect
         fill="#da121a"
         width="1007.8823"
         height="1007.8823"
         id="rect7609"
         x="2184.1724"
         y="-1765.9008"
         style="fill:none;stroke:#333333;stroke-width:1.1141"
         ry="503.94113" />
      <rect
         fill="#da121a"
         width="1007.8823"
         height="1007.8823"
         id="rect1886-3-2"
         x="3637.0852"
         y="-1732.83"
         style="stroke-width:1.1141"
         ry="503.94113" />
      <path
         id="path1888-6-7"
         d="m 3615.2672,-1504.9237 c -34.1485,85.234 -53.1078,178.3156 -53.1078,276.0355 0,97.721 18.9584,190.8002 53.1078,276.03541 l 417.6949,-276.03541 z"
         style="fill:#fcdd09;fill-opacity:1;stroke-width:2.16783" />
      <g
         id="s-7-0"
         transform="matrix(260.01806,84.484983,-84.484983,260.01806,4280.2028,-1228.8892)">
        <g
           id="t-5-9">
          <polygon
             id="w-3-3"
             fill="#fcdd09"
             points="0,0 0,1 0.5,1 "
             transform="rotate(18,3.1568758,-0.5)" />
          <use
             xlink:href="#w-3-3"
             transform="scale(-1,1)"
             id="use1891-5-6"
             x="0"
             y="0"
             width="100%"
             height="100%" />
        </g>
        <use
           xlink:href="#t-5-9"
           transform="rotate(72)"
           id="use1894-6-0"
           x="0"
           y="0"
           width="100%"
           height="100%" />
        <use
           xlink:href="#t-5-9"
           transform="rotate(-72)"
           id="use1896-2-6"
           x="0"
           y="0"
           width="100%"
           height="100%" />
        <use
           xlink:href="#t-5-9"
           transform="rotate(144)"
           id="use1898-9-2"
           x="0"
           y="0"
           width="100%"
           height="100%" />
        <use
           xlink:href="#t-5-9"
           transform="rotate(-144)"
           id="use1900-1-6"
           x="0"
           y="0"
           width="100%"
           height="100%" />
      </g>
      <rect
         fill="#da121a"
         width="1007.8823"
         height="1007.8823"
         id="rect7609-1"
         x="3637.0852"
         y="-1732.83"
         style="fill:none;stroke:#333333;stroke-width:1.1141"
         ry="503.94113" />
      <rect
         fill="#da121a"
         width="1113.7834"
         height="1113.7834"
         id="rect8234-8"
         x="3584.1345"
         y="-1785.7805"
         style="fill:none;stroke:#fcdd09;stroke-width:150;stroke-miterlimit:4;stroke-dasharray:none;stroke-opacity:1"
         ry="556.89172" />
      <rect
         fill="#da121a"
         width="1007.8823"
         height="1007.8823"
         id="rect10878"
         x="5140.5283"
         y="-1767.0994"
         style="stroke-width:1.1141"
         ry="503.94113" />
      <g
         id="g10896"
         transform="matrix(260.01806,84.484983,-84.484983,260.01806,5618.3622,-1263.1582)">
        <g
           id="g10886">
          <polygon
             id="polygon10882"
             fill="#fcdd09"
             points="0.5,1 0,0 0,1 "
             transform="rotate(18,3.1568758,-0.5)" />
          <use
             xlink:href="#w-3-3"
             transform="scale(-1,1)"
             id="use10884"
             x="0"
             y="0"
             width="100%"
             height="100%" />
        </g>
        <use
           xlink:href="#t-5-9"
           transform="rotate(72)"
           id="use10888"
           x="0"
           y="0"
           width="100%"
           height="100%" />
        <use
           xlink:href="#t-5-9"
           transform="rotate(-72)"
           id="use10890"
           x="0"
           y="0"
           width="100%"
           height="100%" />
        <use
           xlink:href="#t-5-9"
           transform="rotate(144)"
           id="use10892"
           x="0"
           y="0"
           width="100%"
           height="100%" />
        <use
           xlink:href="#t-5-9"
           transform="rotate(-144)"
           id="use10894"
           x="0"
           y="0"
           width="100%"
           height="100%" />
      </g>
      <rect
         fill="#da121a"
         width="1007.8823"
         height="1007.8823"
         id="rect10898"
         x="5140.5283"
         y="-1767.0994"
         style="fill:none;stroke:#333333;stroke-width:1.1141"
         ry="503.94113" />
      <rect
         fill="#da121a"
         width="1113.7834"
         height="1113.7834"
         id="rect10900"
         x="5087.5776"
         y="-1820.0499"
         style="fill:none;stroke:#fcdd09;stroke-width:150;stroke-miterlimit:4;stroke-dasharray:none;stroke-opacity:1"
         ry="556.89172" />
      <rect
         fill="#da121a"
         width="1007.8823"
         height="1007.8823"
         id="rect11031"
         x="3581.5427"
         y="-301.63525"
         style="stroke-width:1.1141"
         ry="503.94113" />
      <g
         id="g11047"
         transform="matrix(273.39553,1.4095156,-1.4095156,273.39553,4085.0483,227.99861)">
        <g
           id="g11037">
          <polygon
             id="polygon11033"
             fill="#fcdd09"
             points="0,1 0.5,1 0,0 "
             transform="rotate(18,3.1568758,-0.5)" />
          <use
             xlink:href="#w-3-3"
             transform="scale(-1,1)"
             id="use11035"
             x="0"
             y="0"
             width="100%"
             height="100%" />
        </g>
        <use
           xlink:href="#t-5-9"
           transform="rotate(72)"
           id="use11039"
           x="0"
           y="0"
           width="100%"
           height="100%" />
        <use
           xlink:href="#t-5-9"
           transform="rotate(-72)"
           id="use11041"
           x="0"
           y="0"
           width="100%"
           height="100%" />
        <use
           xlink:href="#t-5-9"
           transform="rotate(144)"
           id="use11043"
           x="0"
           y="0"
           width="100%"
           height="100%" />
        <use
           xlink:href="#t-5-9"
           transform="rotate(-144)"
           id="use11045"
           x="0"
           y="0"
           width="100%"
           height="100%" />
      </g>
      <rect
         fill="#da121a"
         width="1007.8823"
         height="1007.8823"
         id="rect11049"
         x="3581.5427"
         y="-301.63525"
         style="fill:none;stroke:#333333;stroke-width:1.1141"
         ry="503.94113" />
      <rect
         fill="#da121a"
         width="1113.7834"
         height="1113.7834"
         id="rect11051"
         x="3528.592"
         y="-354.58582"
         style="fill:none;stroke:#fcdd09;stroke-width:150;stroke-miterlimit:4;stroke-dasharray:none;stroke-opacity:1"
         ry="556.89172" />
      <text
         xml:space="preserve"
         style="font-size:192px;line-height:1.25;font-family:sans-serif;letter-spacing:0px;fill:#da121a;fill-opacity:1"
         x="3846.6174"
         y="-2015.5527"
         id="text11797"><tspan
           sodipodi:role="line"
           id="tspan11795"
           x="3846.6174"
           y="-2015.5527"
           style="font-style:normal;font-variant:normal;font-weight:bold;font-stretch:normal;font-size:192px;font-family:'Noto Sans Ethiopic';-inkscape-font-specification:'Noto Sans Ethiopic Bold';fill:#da121a;fill-opacity:1">ትግራይ</tspan></text>
      <g
         id="g5809"
         transform="translate(1116.2103,1398.5934)">
        <path
           style="fill:none;stroke:#da121a;stroke-width:51.3949;stroke-miterlimit:4;stroke-dasharray:none;stroke-opacity:1"
           d="m 5329.3912,-456.205 c -221.7032,0 -413.0736,124.7972 -508.3301,308.18751 l 400.2656,264.51759 -400.2656,264.5156 c 95.2565,183.3903 286.6269,308.1894 508.3301,308.1894 317.2785,0 572.7031,-255.4266 572.7031,-572.705 0,-317.2785 -255.4246,-572.7051 -572.7031,-572.7051 z"
           id="path25732" />
      </g>
      <g
         id="g7425"
         transform="translate(-1682.5263,1500.6316)" />
      <path
         id="rect18163-1"
         style="fill:#da121a;fill-opacity:1;stroke-width:0.753874"
         d="m 3540.447,2811.0667 c -127.4772,0 -238.1044,69.3028 -296.629,172.3906 l 260.1172,171.8985 -257.3808,170.0898 c 59.2004,100.4536 168.3877,167.6211 293.8926,167.6211 188.9139,0 341,-152.086 341,-341 0,-188.914 -152.0861,-341 -341,-341 z" />
      <path
         id="rect19654"
         style="fill:#fcdd09;fill-opacity:1;stroke-width:0.753874"
         d="m 3540.4977,2811.1565 c -0.031,0 -0.061,0 -0.092,0 188.8702,0.051 340.9063,152.1155 340.9063,340.998 0,188.8826 -152.0361,340.9475 -340.9063,340.9981 0.031,0 0.061,0 0.092,0 188.914,0 341,-152.086 341,-341 0,-188.9139 -152.086,-341 -341,-341 z m -0.7187,0.018 c -6.8678,0.014 -13.6711,0.2848 -20.4356,0.6953 6.765,-0.4073 13.5669,-0.6848 20.4356,-0.6953 z m -27.4375,1.2246 c -4.7941,0.3888 -9.5562,0.8757 -14.291,1.459 4.7346,-0.5813 9.497,-1.0724 14.291,-1.459 z m -21.4863,2.3672 c -6.4861,0.9385 -12.9269,2.009 -19.2872,3.3047 6.3607,-1.2935 12.8005,-2.3687 19.2872,-3.3047 z m -24.9473,4.6035 c -4.681,1.0373 -9.3342,2.1428 -13.9395,3.3692 4.6055,-1.2252 9.2582,-2.3334 13.9395,-3.3692 z m -22.1621,5.6934 c -3.8487,1.1296 -7.6611,2.334 -11.4512,3.5937 3.7895,-1.2586 7.6031,-2.4653 11.4512,-3.5937 z m -19.375,6.2637 c -5.7224,2.0601 -11.3851,4.2437 -16.959,6.5957 5.5747,-2.3515 11.2357,-4.5364 16.959,-6.5957 z m -24.2559,9.8828 c -3.5749,1.6091 -7.1332,3.2434 -10.6406,4.9707 3.5071,-1.7268 7.0661,-3.3622 10.6406,-4.9707 z m -18.7636,9.1211 c -3.2638,1.718 -6.4821,3.5046 -9.6817,5.3242 3.1992,-1.8192 6.4183,-3.6067 9.6817,-5.3242 z m -17.2422,9.6621 c -5.0363,3.0377 -9.9911,6.1938 -14.8516,9.4805 4.8606,-3.2866 9.8152,-6.443 14.8516,-9.4805 z m -21.9844,14.5469 c -2.9295,2.0926 -5.8422,4.2044 -8.7012,6.3867 2.8589,-2.1823 5.7717,-4.2941 8.7012,-6.3867 z m -16.0312,12.1406 c -2.8189,2.2763 -5.5771,4.6188 -8.3204,6.9824 2.7428,-2.3631 5.5021,-4.7065 8.3204,-6.9824 z m -14.8457,12.6308 c -4.3153,3.9125 -8.5226,7.9412 -12.6309,12.0684 4.1085,-4.1271 8.3156,-8.156 12.6309,-12.0684 z m -18.8633,18.6075 c -2.3968,2.5387 -4.7695,5.0971 -7.0879,7.709 2.3183,-2.6115 4.6912,-5.1706 7.0879,-7.709 z m -13.2559,14.834 c -2.3121,2.7544 -4.5501,5.5703 -6.7754,8.3984 2.2254,-2.8276 4.4634,-5.6445 6.7754,-8.3984 z m -13.3594,16.9609 c -3.0093,4.0848 -5.9452,8.2251 -8.7734,12.4473 2.8289,-4.2215 5.7637,-8.3631 8.7734,-12.4473 z m -13.9804,20.582 c -1.7332,2.7535 -3.438,5.5238 -5.0938,8.3301 1.6563,-2.8054 3.3602,-5.5775 5.0938,-8.3301 z m -7.9707,13.3418 c -28.1744,49.6624 -44.3203,107.1193 -44.3203,168.5195 0,63.3714 17.1797,122.5568 47.0566,173.2891 l 257.2461,-170 z m 4.5761,345.0156 c 1.2051,1.9963 2.4937,3.9334 3.7383,5.9024 -1.245,-1.9685 -2.5327,-3.9066 -3.7383,-5.9024 z m 15.0567,22.6836 c 1.5849,2.2052 3.1531,4.421 4.789,6.586 -1.636,-2.1643 -3.204,-4.3816 -4.789,-6.586 z m 11.4355,15.0528 c 1.7651,2.1886 3.565,4.3449 5.3828,6.4883 -1.8179,-2.1428 -3.6175,-4.3002 -5.3828,-6.4883 z m 12.2793,14.457 c 2.1375,2.3678 4.36,4.6545 6.5625,6.9609 -2.2027,-2.3062 -4.4247,-4.5934 -6.5625,-6.9609 z m 18.6328,18.9863 c 2.2022,2.0868 4.3929,4.1832 6.6504,6.211 -2.2575,-2.0274 -4.4482,-4.1246 -6.6504,-6.211 z m 14.4258,12.9434 c 2.3076,1.9502 4.646,3.8608 7.0059,5.75 -2.3595,-1.8886 -4.6986,-3.8004 -7.0059,-5.75 z m 14.916,11.9609 c 2.8247,2.1277 5.7247,4.1586 8.6172,6.1992 -2.893,-2.0406 -5.792,-4.0715 -8.6172,-6.1992 z m 21.3848,14.7793 c 2.8661,1.8338 5.7281,3.6705 8.6523,5.4199 -2.9239,-1.7487 -5.7865,-3.5867 -8.6523,-5.4199 z m 17.207,10.3262 c 2.8251,1.5805 5.6763,3.1154 8.5508,4.6172 -2.8742,-1.5011 -5.7259,-3.0373 -8.5508,-4.6172 z m 17.127,8.998 c 3.6528,1.7782 7.3685,3.4436 11.0937,5.0938 -3.7254,-1.6495 -7.4407,-3.3162 -11.0937,-5.0938 z m 22.918,10.0606 c 3.7801,1.506 7.5698,2.9916 11.416,4.3652 -3.8463,-1.3726 -7.6358,-2.8601 -11.416,-4.3652 z m 19.9042,7.2246 c 3.5907,1.1763 7.2068,2.29 10.8496,3.3496 -3.6429,-1.0585 -7.2589,-2.1744 -10.8496,-3.3496 z m 19.127,5.6895 c 4.9547,1.3058 9.9622,2.4795 15.0039,3.5664 -5.042,-1.0851 -10.049,-2.2623 -15.0039,-3.5664 z m 22.5293,5.1015 c 5.2687,1.012 10.5742,1.9156 15.9277,2.6836 -5.3537,-0.7658 -10.6589,-1.6736 -15.9277,-2.6836 z m 23.3711,3.625 c 4.5795,0.5553 9.1854,1.0174 13.8203,1.3906 -4.6349,-0.3711 -9.2408,-0.8374 -13.8203,-1.3906 z m 20.9082,1.9258 c 6.664,0.3992 13.3666,0.6554 20.1308,0.6699 -6.7651,-0.011 -13.4661,-0.2739 -20.1308,-0.6699 z" />
      <path
         id="path21284"
         style="fill:none;fill-opacity:1;stroke:#fcdd09;stroke-width:32.154;stroke-miterlimit:4;stroke-dasharray:none;stroke-opacity:1;opacity:1"
         d="m 4330.2335,2718.0718 c -127.4772,0 -238.1044,69.3028 -296.629,172.3906 l 260.1172,171.8985 -257.3808,170.0898 c 59.2004,100.4536 168.3877,167.6211 293.8926,167.6211 188.9139,0 341,-152.086 341,-341 0,-188.914 -152.0861,-341 -341,-341 z" />
      <g
         id="g12852"
         transform="matrix(175.94546,57.168144,-57.168144,175.94546,3680.3457,3147.4526)">
        <g
           id="g12842">
          <polygon
             id="polygon12838"
             fill="#fcdd09"
             points="0.5,1 0,0 0,1 "
             transform="rotate(18,3.1568758,-0.5)" />
          <use
             xlink:href="#w"
             transform="scale(-1,1)"
             id="use12840"
             x="0"
             y="0"
             width="100%"
             height="100%" />
        </g>
        <use
           xlink:href="#t"
           transform="rotate(72)"
           id="use12844"
           x="0"
           y="0"
           width="100%"
           height="100%" />
        <use
           xlink:href="#t"
           transform="rotate(-72)"
           id="use12846"
           x="0"
           y="0"
           width="100%"
           height="100%" />
        <use
           xlink:href="#t"
           transform="rotate(144)"
           id="use12848"
           x="0"
           y="0"
           width="100%"
           height="100%" />
        <use
           xlink:href="#t"
           transform="rotate(-144)"
           id="use12850"
           x="0"
           y="0"
           width="100%"
           height="100%" />
      </g>
      <g
         id="g20987"
         transform="translate(-803.86876,50.528893)">
        <g
           id="g20969">
          <path
             id="path20965"
             style="fill:#da121a;fill-opacity:1;stroke-width:0.753874"
             d="m 3526.6664,2804.1764 c -127.4772,0 -238.1044,69.3028 -296.629,172.3906 l 260.1172,171.8985 -257.3808,170.0898 c 59.2004,100.4536 168.3877,167.6211 293.8926,167.6211 188.9139,0 341,-152.086 341,-341 0,-188.914 -152.0861,-341 -341,-341 z" />
          <path
             id="path20967"
             style="fill:#fcdd09;fill-opacity:1;stroke-width:0.753874"
             d="m 3526.7171,2804.2662 c -0.031,0 -0.061,0 -0.092,0 188.8702,0.051 340.9063,152.1155 340.9063,340.998 0,188.8826 -152.0361,340.9475 -340.9063,340.9981 0.031,0 0.061,0 0.092,0 188.914,0 341,-152.086 341,-341 0,-188.9139 -152.086,-341 -341,-341 z m -0.7187,0.018 c -6.8678,0.014 -13.6711,0.2848 -20.4356,0.6953 6.765,-0.4073 13.5669,-0.6848 20.4356,-0.6953 z m -27.4375,1.2246 c -4.7941,0.3888 -9.5562,0.8757 -14.291,1.459 4.7346,-0.5813 9.497,-1.0724 14.291,-1.459 z m -21.4863,2.3672 c -6.4861,0.9385 -12.9269,2.009 -19.2872,3.3047 6.3607,-1.2935 12.8005,-2.3687 19.2872,-3.3047 z m -24.9473,4.6035 c -4.681,1.0373 -9.3342,2.1428 -13.9395,3.3692 4.6055,-1.2252 9.2582,-2.3334 13.9395,-3.3692 z m -22.1621,5.6934 c -3.8487,1.1296 -7.6611,2.334 -11.4512,3.5937 3.7895,-1.2586 7.6031,-2.4653 11.4512,-3.5937 z m -19.375,6.2637 c -5.7224,2.0601 -11.3851,4.2437 -16.959,6.5957 5.5747,-2.3515 11.2357,-4.5364 16.959,-6.5957 z m -24.2559,9.8828 c -3.5749,1.6091 -7.1332,3.2434 -10.6406,4.9707 3.5071,-1.7268 7.0661,-3.3622 10.6406,-4.9707 z m -18.7636,9.1211 c -3.2638,1.718 -6.4821,3.5046 -9.6817,5.3242 3.1992,-1.8192 6.4183,-3.6067 9.6817,-5.3242 z m -17.2422,9.6621 c -5.0363,3.0377 -9.9911,6.1938 -14.8516,9.4805 4.8606,-3.2866 9.8152,-6.443 14.8516,-9.4805 z m -21.9844,14.5469 c -2.9295,2.0926 -5.8422,4.2044 -8.7012,6.3867 2.8589,-2.1823 5.7717,-4.2941 8.7012,-6.3867 z m -16.0312,12.1406 c -2.8189,2.2763 -5.5771,4.6188 -8.3204,6.9824 2.7428,-2.3631 5.5021,-4.7065 8.3204,-6.9824 z m -14.8457,12.6308 c -4.3153,3.9125 -8.5226,7.9412 -12.6309,12.0684 4.1085,-4.1271 8.3156,-8.156 12.6309,-12.0684 z m -18.8633,18.6075 c -2.3968,2.5387 -4.7695,5.0971 -7.0879,7.709 2.3183,-2.6115 4.6912,-5.1706 7.0879,-7.709 z m -13.2559,14.834 c -2.3121,2.7544 -4.5501,5.5703 -6.7754,8.3984 2.2254,-2.8276 4.4634,-5.6445 6.7754,-8.3984 z m -13.3594,16.9609 c -3.0093,4.0848 -5.9452,8.2251 -8.7734,12.4473 2.8289,-4.2215 5.7637,-8.3631 8.7734,-12.4473 z m -13.9804,20.582 c -1.7332,2.7535 -3.438,5.5238 -5.0938,8.3301 1.6563,-2.8054 3.3602,-5.5775 5.0938,-8.3301 z m -7.9707,13.3418 c -28.1744,49.6624 -44.3203,107.1193 -44.3203,168.5195 0,63.3714 17.1797,122.5568 47.0566,173.2891 l 257.2461,-170 z m 4.5761,345.0156 c 1.2051,1.9963 2.4937,3.9334 3.7383,5.9024 -1.245,-1.9685 -2.5327,-3.9066 -3.7383,-5.9024 z m 15.0567,22.6836 c 1.5849,2.2052 3.1531,4.421 4.789,6.586 -1.636,-2.1643 -3.204,-4.3816 -4.789,-6.586 z m 11.4355,15.0528 c 1.7651,2.1886 3.565,4.3449 5.3828,6.4883 -1.8179,-2.1428 -3.6175,-4.3002 -5.3828,-6.4883 z m 12.2793,14.457 c 2.1375,2.3678 4.36,4.6545 6.5625,6.9609 -2.2027,-2.3062 -4.4247,-4.5934 -6.5625,-6.9609 z m 18.6328,18.9863 c 2.2022,2.0868 4.3929,4.1832 6.6504,6.211 -2.2575,-2.0274 -4.4482,-4.1246 -6.6504,-6.211 z m 14.4258,12.9434 c 2.3076,1.9502 4.646,3.8608 7.0059,5.75 -2.3595,-1.8886 -4.6986,-3.8004 -7.0059,-5.75 z m 14.916,11.9609 c 2.8247,2.1277 5.7247,4.1586 8.6172,6.1992 -2.893,-2.0406 -5.792,-4.0715 -8.6172,-6.1992 z m 21.3848,14.7793 c 2.8661,1.8338 5.7281,3.6705 8.6523,5.4199 -2.9239,-1.7487 -5.7865,-3.5867 -8.6523,-5.4199 z m 17.207,10.3262 c 2.8251,1.5805 5.6763,3.1154 8.5508,4.6172 -2.8742,-1.5011 -5.7259,-3.0373 -8.5508,-4.6172 z m 17.127,8.998 c 3.6528,1.7782 7.3685,3.4436 11.0937,5.0938 -3.7254,-1.6495 -7.4407,-3.3162 -11.0937,-5.0938 z m 22.918,10.0606 c 3.7801,1.506 7.5698,2.9916 11.416,4.3652 -3.8463,-1.3726 -7.6358,-2.8601 -11.416,-4.3652 z m 19.9042,7.2246 c 3.5907,1.1763 7.2068,2.29 10.8496,3.3496 -3.6429,-1.0585 -7.2589,-2.1744 -10.8496,-3.3496 z m 19.127,5.6895 c 4.9547,1.3058 9.9622,2.4795 15.0039,3.5664 -5.042,-1.0851 -10.049,-2.2623 -15.0039,-3.5664 z m 22.5293,5.1015 c 5.2687,1.012 10.5742,1.9156 15.9277,2.6836 -5.3537,-0.7658 -10.6589,-1.6736 -15.9277,-2.6836 z m 23.3711,3.625 c 4.5795,0.5553 9.1854,1.0174 13.8203,1.3906 -4.6349,-0.3711 -9.2408,-0.8374 -13.8203,-1.3906 z m 20.9082,1.9258 c 6.664,0.3992 13.3666,0.6554 20.1308,0.6699 -6.7651,-0.011 -13.4661,-0.2739 -20.1308,-0.6699 z" />
        </g>
        <g
           id="g20985"
           transform="matrix(175.94546,57.168144,-57.168144,175.94546,3666.5651,3140.5623)">
          <g
             id="g20975">
            <polygon
               id="polygon20971"
               fill="#fcdd09"
               points="0.5,1 0,0 0,1 "
               transform="rotate(18,3.1568758,-0.5)" />
            <use
               xlink:href="#w"
               transform="scale(-1,1)"
               id="use20973"
               x="0"
               y="0"
               width="100%"
               height="100%" />
          </g>
          <use
             xlink:href="#t"
             transform="rotate(72)"
             id="use20977"
             x="0"
             y="0"
             width="100%"
             height="100%" />
          <use
             xlink:href="#t"
             transform="rotate(-72)"
             id="use20979"
             x="0"
             y="0"
             width="100%"
             height="100%" />
          <use
             xlink:href="#t"
             transform="rotate(144)"
             id="use20981"
             x="0"
             y="0"
             width="100%"
             height="100%" />
          <use
             xlink:href="#t"
             transform="rotate(-144)"
             id="use20983"
             x="0"
             y="0"
             width="100%"
             height="100%" />
        </g>
      </g>
    </g>
  </g>
</svg>
